<svg xmlns="http://www.w3.org/2000/svg" xmlns:xlink="http://www.w3.org/1999/xlink" width="20" height="20" viewBox="0 0 20 20">
    <defs>
        <path id="a" d="M10 18a8 8 0 1 0 0-16 8 8 0 0 0 0 16zm0-15a7 7 0 1 1 0 14 7 7 0 0 1 0-14zM8 14.5h1V13h3v-1H9v-1h2a2.5 2.5 0 1 0 0-5H8v4H7v1h1v1H7v1h1v1.5zM9 7h2a1.5 1.5 0 0 1 0 3H9V7z"/>
    </defs>
    <g fill="none" fill-rule="evenodd">
        <mask id="b" fill="#fff">
            <use xlink:href="#a"/>
        </mask>
        <use fill="#000" fill-rule="nonzero" xlink:href="#a"/>
        <g fill="#333" mask="url(#b)">
            <path d="M-12-12h44v44h-44z"/>
        </g>
    </g>
</svg>
