<svg xmlns="http://www.w3.org/2000/svg" width="129" height="134" viewBox="0 0 129 134">
    <g fill="none" fill-rule="evenodd">
        <path fill="#FFF" d="M99.925 48.258c.578 2.583.875 5.245.875 7.95 0 20.019-16.252 36.247-36.3 36.247S28.2 76.227 28.2 56.207c0-2.704.297-5.366.875-7.949 1.491 8.413 8.86 14.803 17.725 14.803 8.817 0 16.154-6.32 17.7-14.666 1.546 8.345 8.883 14.666 17.7 14.666 8.865 0 16.234-6.39 17.725-14.803zM47 62c-9.389 0-17-7.611-17-17s7.611-17 17-17 17 7.611 17 17-7.611 17-17 17zm35 0c-9.389 0-17-7.611-17-17s7.611-17 17-17 17 7.611 17 17-7.611 17-17 17z"/>
        <path fill="#34AAF2" fill-opacity=".298" d="M49.2 59.472c-6.627 0-12-5.357-12-11.964 0-6.608 5.373-11.965 12-11.965s12 5.357 12 11.965c0 6.607-5.373 11.964-12 11.964zm30.6 0c-6.627 0-12-5.357-12-11.964 0-6.608 5.373-11.965 12-11.965s12 5.357 12 11.965c0 6.607-5.373 11.964-12 11.964z"/>
        <g transform="translate(0 98.356)">
            <path fill="#FFA717" d="M3.157 0A919.124 919.124 0 0 0 64.5 2.051c20.448 0 40.895-.684 61.343-2.051C127.948 1.21 129 4.8 129 10.768c0 5.968-1.052 9.558-3.157 10.768A919.124 919.124 0 0 0 64.5 19.485c-20.448 0-40.895.683-61.343 2.05V0z"/>
            <path fill="#731982" d="M72.232 20.628l4.865 8.383-5.058-1.536-1.192 5.125-4.449-7.665a8.487 8.487 0 0 1-2.794.067l-5.902 10.17-1.246-5.033-5.004 1.443 6.134-10.568A8.283 8.283 0 0 1 56.4 16.73c0-3.098 1.694-5.801 4.21-7.244V2.052h8.4v7.447c2.505 1.446 4.19 4.143 4.19 7.232 0 1.407-.35 2.734-.968 3.897z"/>
            <ellipse cx="64.8" cy="16.75" fill="#00B956" rx="4.8" ry="4.786"/>
            <ellipse cx="3.157" cy="10.768" fill="#FFCB75" rx="3.157" ry="10.768"/>
        </g>
        <path fill="#67D59A" d="M86.4 19.017v8.643a18.1 18.1 0 0 0-4.2-.492c-8.817 0-16.154 6.321-17.7 14.666-1.546-8.345-8.883-14.666-17.7-14.666-2.104 0-4.123.36-6 1.022v-9.825l23.685 6.429h.63L86.4 19.017zm2.4-.652v10.048-10.048zm-48-2.48v-.083h48v.083l-24 6.514-24-6.514z"/>
        <path fill="#00B956" d="M66.126 1.818l40.377 9.262L64.8 22.4 26.41 11.98l39.84-9.655-.124-.507z"/>
        <path fill="#333" fill-rule="nonzero" d="M23.685 13.72v16.176h-2.4V10.753h.032L65.683 0l.566 2.325L26.41 11.98 64.8 22.4l44.043-11.955.63 2.309L88.8 18.365v10.048A18.028 18.028 0 0 1 99.07 38.84l.008-.004a38.432 38.432 0 0 1 4.122 17.371c0 21.34-17.326 38.64-38.7 38.64-21.374 0-38.7-17.3-38.7-38.64a38.431 38.431 0 0 1 4.162-17.45A18.005 18.005 0 0 1 46.8 27.169c8.817 0 16.154 6.321 17.7 14.666 1.546-8.345 8.883-14.666 17.7-14.666a18.1 18.1 0 0 1 4.2.492v-8.643l-21.285 5.777h-.63l-40.8-11.074zm76.24 34.538c-1.491 8.413-8.86 14.803-17.725 14.803-8.817 0-16.154-6.32-17.7-14.666-1.546 8.345-8.883 14.666-17.7 14.666-8.865 0-16.234-6.39-17.725-14.803a36.342 36.342 0 0 0-.875 7.95c0 20.019 16.252 36.247 36.3 36.247s36.3-16.228 36.3-36.248c0-2.704-.297-5.366-.875-7.949zM46.8 60.668c8.616 0 15.6-6.963 15.6-15.553S55.416 29.56 46.8 29.56s-15.6 6.964-15.6 15.554 6.984 15.553 15.6 15.553zm35.4 0c8.616 0 15.6-6.963 15.6-15.553S90.816 29.56 82.2 29.56s-15.6 6.964-15.6 15.554 6.984 15.553 15.6 15.553zM21.292 49.83l.915-.774 1.554 1.823-.915.775c-6.583 5.576-8.896 11.655-7.082 18.402 1.813 6.75 6.875 10.89 15.392 12.494l1.179.222-.445 2.35-1.18-.221c-9.372-1.764-15.196-6.529-17.265-14.226-2.069-7.699.595-14.702 7.847-20.845zm86.965 0c7.252 6.143 9.916 13.146 7.847 20.845-2.068 7.697-7.892 12.462-17.265 14.226l-1.18.222-.444-2.351 1.179-.222c8.516-1.603 13.578-5.745 15.392-12.494 1.813-6.747-.5-12.826-7.083-18.402l-.914-.775 1.554-1.823.914.774zM49.2 52.892c-2.982 0-5.4-2.41-5.4-5.384s2.418-5.384 5.4-5.384 5.4 2.41 5.4 5.384c0 2.973-2.418 5.384-5.4 5.384zm30.6 0c-2.982 0-5.4-2.41-5.4-5.384s2.418-5.384 5.4-5.384 5.4 2.41 5.4 5.384c0 2.973-2.418 5.384-5.4 5.384zm-15.3 2.392l7.82 10.768L64.5 76.82l-7.82-10.768 7.82-10.768zm-14.7 50.25c-1.657 0-3-2.276-3-5.084 0-2.809 1.343-5.085 3-5.085s3 2.276 3 5.085c0 2.808-1.343 5.084-3 5.084zm-6 0c-1.657 0-3-2.276-3-5.084 0-2.809 1.343-5.085 3-5.085s3 2.276 3 5.085c0 2.808-1.343 5.084-3 5.084zm12 0c-1.657 0-3-2.276-3-5.084 0-2.809 1.343-5.085 3-5.085s3 2.276 3 5.085c0 2.808-1.343 5.084-3 5.084zm18 0c-1.657 0-3-2.276-3-5.084 0-2.809 1.343-5.085 3-5.085s3 2.276 3 5.085c0 2.808-1.343 5.084-3 5.084zm6 0c-1.657 0-3-2.276-3-5.084 0-2.809 1.343-5.085 3-5.085s3 2.276 3 5.085c0 2.808-1.343 5.084-3 5.084zm6 0c-1.657 0-3-2.276-3-5.084 0-2.809 1.343-5.085 3-5.085s3 2.276 3 5.085c0 2.808-1.343 5.084-3 5.084z"/>
    </g>
</svg>
